<svg width="511.987" height="511.987" xmlns="http://www.w3.org/2000/svg">

 <g>
  <title>background</title>
  <rect fill="none" id="canvas_background" height="402" width="582" y="-1" x="-1"/>
 </g>
 <g>
  <title>Layer 1</title>
  <g id="svg_1">
   <g id="svg_2">
    <g id="svg_3">
     <path fill="#ffffff" id="svg_4" d="m392.527,59.72l0,-32.904c0.084,-8.429 -3.667,-16.439 -10.196,-21.771c-5.535,-4.434 -12.807,-6.064 -19.704,-4.417l-244.93,59.27c-13.388,0.902 -23.798,12.005 -23.837,25.422l0,401.067c0.015,14.132 11.468,25.585 25.6,25.6l273.067,0c14.132,-0.015 25.585,-11.468 25.6,-25.6l0,-401.067c-0.016,-14.132 -11.468,-25.584 -25.6,-25.6zm-25.883,-42.5c1.81,-0.42 3.713,0.038 5.133,1.237c2.429,2.085 3.784,5.158 3.683,8.358l0,32.905l-184.446,0l175.63,-42.5zm34.416,469.167c-0.006,4.71 -3.823,8.527 -8.533,8.533l-273.067,0c-4.71,-0.006 -8.527,-3.823 -8.533,-8.533l0,-401.067c0.006,-4.71 3.823,-8.527 8.533,-8.533l273.067,0c4.71,0.006 8.527,3.823 8.533,8.533l0,401.067z"/>
     <path fill="#ffffff" id="svg_5" d="m298.66,364.925c14.132,-0.015 25.585,-11.468 25.6,-25.6l0,-102.4c9.422,-0.009 17.057,-7.645 17.067,-17.067l0,-51.2c0,-37.3 -19.191,-63.196 -50.088,-67.588l-8.45,-1.196c-2.447,-0.346 -4.924,0.387 -6.791,2.007c-1.866,1.621 -2.938,3.971 -2.939,6.443l0,231c0.017,14.133 11.469,25.585 25.601,25.601zm-8.533,-246.755c30.775,5.217 34.133,36.946 34.133,50.487l0,51.2l-8.533,0c-4.713,0 -8.533,3.821 -8.533,8.533l0,110.933c0,4.713 -3.82,8.533 -8.533,8.533s-8.533,-3.82 -8.533,-8.533l0,-221.153l-0.001,0z"/>
     <path fill="#ffffff" id="svg_6" d="m187.727,206.725l0,132.6c0,14.139 11.461,25.6 25.6,25.6s25.6,-11.461 25.6,-25.6l0,-132.6c10.578,-6.067 17.091,-17.339 17.067,-29.533l0,-68.267c0,-4.713 -3.82,-8.533 -8.533,-8.533s-8.533,3.82 -8.533,8.533l0,42.667c0,4.713 -3.821,8.533 -8.533,8.533c-4.713,0 -8.533,-3.82 -8.533,-8.533l0,-42.667c0,-4.713 -3.82,-8.533 -8.533,-8.533s-8.533,3.82 -8.533,8.533l0,42.667c0,4.713 -3.82,8.533 -8.533,8.533s-8.533,-3.82 -8.533,-8.533l0,-42.667c0,-4.713 -3.82,-8.533 -8.533,-8.533s-8.533,3.82 -8.533,8.533l0,68.267c-0.029,12.193 6.485,23.465 17.063,29.533zm0,-31.107c2.733,1.012 5.62,1.544 8.533,1.573c6.319,-0.02 12.404,-2.394 17.067,-6.658c6.879,6.412 16.793,8.382 25.6,5.086l0,1.572c0.042,7.195 -4.496,13.621 -11.292,15.988c-3.454,1.179 -5.775,4.425 -5.775,8.075l0,138.071c0,4.713 -3.82,8.533 -8.533,8.533s-8.533,-3.82 -8.533,-8.533l0,-138.071c0,-3.65 -2.321,-6.896 -5.775,-8.075c-6.795,-2.367 -11.333,-8.792 -11.292,-15.988l0,-1.573z"/>
     <path fill="#ffffff" id="svg_7" d="m170.66,433.191l119.467,0c4.713,0 8.533,-3.82 8.533,-8.533s-3.821,-8.533 -8.533,-8.533l-119.467,0c-4.713,0 -8.533,3.82 -8.533,8.533s3.82,8.533 8.533,8.533z"/>
     <path fill="#ffffff" id="svg_8" d="m341.327,416.125l-17.067,0c-4.713,0 -8.533,3.82 -8.533,8.533s3.82,8.533 8.533,8.533l17.067,0c4.713,0 8.533,-3.82 8.533,-8.533s-3.82,-8.533 -8.533,-8.533z"/>
     <path fill="#ffffff" id="svg_9" d="m341.327,450.258l-68.267,0c-4.713,0 -8.533,3.82 -8.533,8.533s3.82,8.533 8.533,8.533l68.267,0c4.713,0 8.533,-3.82 8.533,-8.533s-3.82,-8.533 -8.533,-8.533z"/>
     <path fill="#ffffff" id="svg_10" d="m238.927,450.258l-8.533,0c-4.713,0 -8.533,3.82 -8.533,8.533s3.821,8.533 8.533,8.533l8.533,0c4.713,0 8.533,-3.82 8.533,-8.533s-3.82,-8.533 -8.533,-8.533z"/>
     <path fill="#ffffff" id="svg_11" d="m196.26,450.258l-25.6,0c-4.713,0 -8.533,3.82 -8.533,8.533s3.82,8.533 8.533,8.533l25.6,0c4.713,0 8.533,-3.82 8.533,-8.533s-3.82,-8.533 -8.533,-8.533z"/>
    </g>
   </g>
  </g>
  <g id="svg_12"/>
  <g id="svg_13"/>
  <g id="svg_14"/>
  <g id="svg_15"/>
  <g id="svg_16"/>
  <g id="svg_17"/>
  <g id="svg_18"/>
  <g id="svg_19"/>
  <g id="svg_20"/>
  <g id="svg_21"/>
  <g id="svg_22"/>
  <g id="svg_23"/>
  <g id="svg_24"/>
  <g id="svg_25"/>
  <g id="svg_26"/>
 </g>
</svg>