<?xml version="1.0" encoding="UTF-8" standalone="no"?>
<svg
   xmlns:dc="http://purl.org/dc/elements/1.1/"
   xmlns:cc="http://creativecommons.org/ns#"
   xmlns:rdf="http://www.w3.org/1999/02/22-rdf-syntax-ns#"
   xmlns:svg="http://www.w3.org/2000/svg"
   xmlns="http://www.w3.org/2000/svg"
   xmlns:sodipodi="http://sodipodi.sourceforge.net/DTD/sodipodi-0.dtd"
   xmlns:inkscape="http://www.inkscape.org/namespaces/inkscape"
   id="Out_line"
   data-name="Out line"
   viewBox="0 0 512 512"
   width="512"
   height="512"
   version="1.1"
   sodipodi:docname="rating.svg"
   inkscape:version="0.92.5 (2060ec1f9f, 2020-04-08)">
  <metadata
     id="metadata3791">
    <rdf:RDF>
      <cc:Work
         rdf:about="">
        <dc:format>image/svg+xml</dc:format>
        <dc:type
           rdf:resource="http://purl.org/dc/dcmitype/StillImage" />
      </cc:Work>
    </rdf:RDF>
  </metadata>
  <defs
     id="defs3789" />
  <sodipodi:namedview
     pagecolor="#ffffff"
     bordercolor="#666666"
     borderopacity="1"
     objecttolerance="10"
     gridtolerance="10"
     guidetolerance="10"
     inkscape:pageopacity="0"
     inkscape:pageshadow="2"
     inkscape:window-width="1578"
     inkscape:window-height="850"
     id="namedview3787"
     showgrid="false"
     inkscape:zoom="1.3222656"
     inkscape:cx="256"
     inkscape:cy="256"
     inkscape:window-x="9"
     inkscape:window-y="37"
     inkscape:window-maximized="0"
     inkscape:current-layer="Out_line" />
  <path
     d="M195.2002,70.24609,223.1665,91.2207l-7.01123,35.05567a8.00011,8.00011,0,0,0,12.64453,7.96972L256,113.8457l27.2002,20.40039a8.00011,8.00011,0,0,0,12.64453-7.96972L288.8335,91.2207l27.9663-20.97461A8.00012,8.00012,0,0,0,312,55.8457H277.416L263.42773,20.875a7.99963,7.99963,0,0,0-14.85546,0L234.584,55.8457H200a8.00012,8.00012,0,0,0-4.7998,14.40039ZM240,71.8457a7.99922,7.99922,0,0,0,7.42773-5.02929L256,45.38672l8.57227,21.42969A7.99922,7.99922,0,0,0,272,71.8457h16l-12.7998,9.59961a8.00117,8.00117,0,0,0-3.04493,7.96973l3.89356,19.46777-15.249-11.4375a8.001,8.001,0,0,0-9.5996,0l-15.249,11.4375L239.84473,89.415a8.00117,8.00117,0,0,0-3.04493-7.96973L224,71.8457Z"
     id="path3772"
     style="fill:#ffffff" />
  <path
     d="M100.709,178.56348a8.0013,8.0013,0,0,0,7.26807,5.43066c.10449.00391.208.00586.312.00586a7.99993,7.99993,0,0,0,7.355-4.85742L129,147.876l33.75586,4.0664a8,8,0,0,0,6.96631-13.22363l-23.6001-26.85352L159.85449,79.7168a7.99985,7.99985,0,0,0-11.35693-10.07032l-29.95068,17.291-29.59961-23.291a8.00055,8.00055,0,0,0-12.86573,7.42774l5.37158,37.28027-29.95068,17.292a7.9997,7.9997,0,0,0,3.043,14.87012l34.70752,4.18262ZM94.14355,119.502a7.99911,7.99911,0,0,0,3.91846-8.06836l-3.2915-22.8457,18.13867,14.27344a7.99735,7.99735,0,0,0,8.94727.64062l13.85644-8-6.28516,14.71485a8.001,8.001,0,0,0,1.34766,8.42382l13.106,14.91211L124.957,131.27344a7.99387,7.99387,0,0,0-8.314,4.7998l-7.4878,17.52832-6.36181-18.80566a8,8,0,0,0-6.6211-5.37891l-15.88574-1.91406Z"
     id="path3774"
     style="fill:#ffffff" />
  <path
     d="M460.49756,125.64648l-29.95068-17.292,5.37158-37.28027a8.00055,8.00055,0,0,0-12.86573-7.42774l-29.59961,23.291-29.95068-17.291A7.99985,7.99985,0,0,0,352.14551,79.7168l13.73242,32.14843-23.6001,26.85352a8,8,0,0,0,6.96631,13.22363L383,147.876l13.356,31.2666A8.00043,8.00043,0,0,0,403.71094,184c.10351,0,.208-.00195.312-.00586a8.0013,8.0013,0,0,0,7.26807-5.43066l11.45605-33.86426,34.70752-4.18262a7.9997,7.9997,0,0,0,3.043-14.87012ZM415.82764,129.417a8,8,0,0,0-6.6211,5.37891l-6.36181,18.80566-7.4878-17.52832a7.99806,7.99806,0,0,0-8.314-4.7998l-18.92432,2.27929,13.106-14.91211a8.001,8.001,0,0,0,1.34766-8.42382l-6.28516-14.71485,13.85644,8a7.99722,7.99722,0,0,0,8.94727-.64062l18.13867-14.27344-3.2915,22.8457a7.99911,7.99911,0,0,0,3.91846,8.06836l13.85693,8.001Z"
     id="path3776"
     style="fill:#ffffff" />
  <path
     d="M368,352h-3.15576a61.75989,61.75989,0,0,0-50.03662,25.46094L278.45947,392H275.314l18.34278-18.34277A8.0001,8.0001,0,0,0,288,360H270.62744A62.16594,62.16594,0,0,0,228.814,376H192a8.00035,8.00035,0,0,0-5.65674,2.34277L164,400.686l-6.34326-6.34327a8.00182,8.00182,0,0,0-11.31348,0l-64,64,11.31348,11.31446L152,411.31348,204.68652,464l-18.34326,18.34277,11.31348,11.31446,24-24a8.00034,8.00034,0,0,0,0-11.31446L211.314,448H272a7.99583,7.99583,0,0,0,3.57764-.84473l64-32a7.99558,7.99558,0,0,0,3.07861-2.71777l32-48A8.00016,8.00016,0,0,0,368,352Zm-37.478,49.79492L270.11133,432H208a8.00035,8.00035,0,0,0-5.65674,2.34277L200,436.686,175.3139,412l19.99958-20H232a7.99917,7.99917,0,0,0,5.65723-2.34375A46.2899,46.2899,0,0,1,268.645,376.041l-34.30176,34.30175,11.31348,11.31446L259.314,408H280a8.00164,8.00164,0,0,0,2.97119-.57227l40-16a7.99543,7.99543,0,0,0,3.68506-2.99023,45.80531,45.80531,0,0,1,25.13916-18.55273Z"
     id="path3778"
     style="fill:#ffffff" />
  <path
     d="M408,296H384c0-62.3772-44.85364-114.46729-104-125.73364V160a24,24,0,0,0-48,0v10.26636C172.85364,181.53271,128,233.6228,128,296H104a8.00008,8.00008,0,0,0-8,8,40.04552,40.04552,0,0,0,40,40H376a40.04552,40.04552,0,0,0,40-40A8.00008,8.00008,0,0,0,408,296ZM248,160a8,8,0,1,1,16,0v8.25732c-2.64685-.16406-5.31256-.25732-8-.25732s-5.35315.09326-8,.25732Zm8,24A112.12706,112.12706,0,0,1,368,296H144A112.12706,112.12706,0,0,1,256,184ZM376,328H136a24.04118,24.04118,0,0,1-22.62891-16H398.62891A24.04118,24.04118,0,0,1,376,328Z"
     id="path3780"
     style="fill:#ffffff" />
  <path
     d="M222.69092,223.26758l-6.68555-14.53516a95.40865,95.40865,0,0,1,22.543-7.14258l2.90332,15.73438A79.43009,79.43009,0,0,0,222.69092,223.26758Z"
     id="path3782"
     style="fill:#ffffff" />
  <path
     d="M184.74707,259.64844l-14.23926-7.29688A96.89174,96.89174,0,0,1,200.84863,217.459l9.21192,13.082A80.8351,80.8351,0,0,0,184.74707,259.64844Z"
     id="path3784"
     style="fill:#ffffff" />
</svg>
